/* XPM */
static char *praat32x32[] = {
/* columns rows colors chars-per-pixel */
"32 32 7 1",
"  c black",
". c #9B0063",
"X c #AC448B",
"o c #FC66CC",
"O c #C6A27B",
"+ c #FCCE9C",
"@ c None",
/* pixels */
"@@@@@@@@@@@@@@@@@@@@@@@@@@@@@@@@",
"@@@@@@@@@@@@@XX@@@XX@@@@@@@@@@@@",
"@@@@@@@@@@@@XooX@XooX@@@@@@@@@@@",
"@@@@@@@@@@@@XoooXooooX@@@@@@@@@@",
"@@@@@@@@@@@XooooooooooX@@@@@@@@@",
"@@@@@@@@@@XooooooooooooX@@@@@@@@",
"@@@@@@@@@Xoooo    ooooooX@@@@@@@",
"@@@@@@@@Xoooo ....   ooooX@@@@@@",
"@@@@@@XXoooo ........  oooXX@@@@",
"@@@@XXooooo ........... ooooXXX@",
"@@XXoooooo ............ ooooooX@",
"@@Xoooooo ............. ooooooX@",
"@@@Xoooooo ............ ooooooX@",
"@@@@Xoooooo            ooooXXX@@",
"@@@@@XXooooooooooooooooXXXX@@@@@",
"@@@@@@@XXXXXXXXXXXXXXXX@@@@@@@@@",
"@@@@@@@@@@@@@@@@@@@@@@@@@@@@@@@@",
"@@@@@@@@@@@@@@@@@@@@@@@@@@@@@@@@",
"@@@@@@@@@@@@@@@@@@@@@@@@@@@@@@@@",
"@@@@@@@@@@OOOOOOOOOO@@@@@@@@@@@@",
"@@@@@@@@@@O++++++++O@@@@@@@@@@@@",
"@@@@@@@@@@O++   ++O@@@@@@@@@@@@@",
"@@@@@@@@@@O+ ++++O@@@@@@@@@@@@@@",
"@@@@@@@@@@O+ +++O@@@@@@@@@@@@@@@",
"@@@@@@@@@@O++  +O@@@@@@@@@@@@@@@",
"@@@@@@@@@@@O+++ +O@@@@@@@@@@@@@@",
"@@@@@@@@@@@@O+++ +O@@@@@@@@@@@@@",
"@@@@@@@@@@@@@O+++++O@@@@@@@@@@@@",
"@@@@@@@@@@@@@@O+++++O@@@@@@@@@@@",
"@@@@@@@@@@@@@@@O++++O@@@@@@@@@@@",
"@@@@@@@@@@@@@@@@OOOO@@@@@@@@@@@@",
"@@@@@@@@@@@@@@@@@@@@@@@@@@@@@@@@"
};
